<?xml version="1.0" encoding="utf-8"?>
<!-- Generator: Adobe Illustrator 25.2.3, SVG Export Plug-In . SVG Version: 6.00 Build 0)  -->
<svg version="1.1" id="Layer_1" xmlns="http://www.w3.org/2000/svg" xmlns:xlink="http://www.w3.org/1999/xlink" x="0px" y="0px"
	 viewBox="0 0 500 500" style="enable-background:new 0 0 500 500;" xml:space="preserve">
<style type="text/css">
	.st0{fill:#F9B233;}
</style>
<g id="XMLID_394_">
	<g id="XMLID_438_">
		<path id="XMLID_447_" d="M440.66,345.44l-28.07-37.43c-1.59-2.12-4.08-3.36-6.73-3.36H172.39c-3.72,0-7-2.45-8.06-6.01
			l-9.73-32.74h228.3l-11.86-16.82H149.59l-11.88-39.95h205.16l-11.86-16.82H132.71l-11.88-39.95h182.02L291,135.53H115.84
			L98.51,77.26c-1.06-3.57-4.34-6.01-8.06-6.01H34.2c-4.64,0-8.41,3.77-8.41,8.41c0,4.64,3.77,8.41,8.41,8.41h43.7
			c3.72,0,7,2.45,8.06,6.01l12.32,41.46l5,16.82l11.88,39.95l5,16.82l11.88,39.95l5,16.82l14.74,49.56
			c1.06,3.57,4.34,6.01,8.06,6.01h237.61c2.65,0,5.14,1.25,6.73,3.36l23.03,30.7c2.79,3.72,8.06,4.47,11.77,1.68h0
			C442.69,354.43,443.44,349.15,440.66,345.44z"/>
		<path id="XMLID_446_" class="st0" d="M430.99,188.41v-46.19c0-2.92-2.37-5.29-5.29-5.29h-78.35c-2.92,0-5.29,2.37-5.29,5.29l0,0
			c0,2.92,2.37,5.29,5.29,5.29h67.78c2.92,0,5.29,2.37,5.29,5.29v35.62c0,2.92-2.37,5.29-5.29,5.29h-26.29v0.2H373.3
			c-2.92,0-5.29,2.37-5.29,5.29l0,0c0,2.92,2.37,5.29,5.29,5.29h57.68v-0.2h30.92c2.92,0,5.29,2.37,5.29,5.29v35.81
			c0,2.92-2.37,5.29-5.29,5.29h-41.82c-2.92,0-5.29,2.37-5.29,5.29l0,0c0,2.92,2.37,5.29,5.29,5.29h52.4c2.92,0,5.29-2.37,5.29-5.29
			v-56.96c0-2.92-2.37-5.29-5.29-5.29h-36.2C433.36,193.69,430.99,191.33,430.99,188.41z"/>
		<path id="XMLID_443_" d="M211.5,325.09c-15.24,0-27.59,12.35-27.59,27.59s12.35,27.59,27.59,27.59
			c15.24,0,27.59-12.35,27.59-27.59S226.74,325.09,211.5,325.09z M211.5,370.82c-10.01,0-18.13-8.12-18.13-18.13
			s8.12-18.13,18.13-18.13c10.01,0,18.13,8.12,18.13,18.13S221.51,370.82,211.5,370.82z"/>
		<path id="XMLID_440_" d="M362.08,325.09c-15.24,0-27.59,12.35-27.59,27.59s12.35,27.59,27.59,27.59
			c15.24,0,27.59-12.35,27.59-27.59S377.32,325.09,362.08,325.09z M362.08,370.82c-10.01,0-18.13-8.12-18.13-18.13
			s8.12-18.13,18.13-18.13c10.01,0,18.13,8.12,18.13,18.13S372.1,370.82,362.08,370.82z"/>
	</g>
	<polygon id="XMLID_416_" class="st0" points="124.68,249.07 114.23,213.92 43.16,213.92 43.16,229.4 107.14,229.4 111.95,240.37 
		70.9,240.37 70.9,249.4 30.9,249.4 30.9,264.89 86.39,264.89 86.39,255.86 126.7,255.86 	"/>
	<polygon id="XMLID_396_" class="st0" points="95.93,152.35 92.6,141.14 21.33,141.14 21.33,156.62 85.31,156.62 90.12,167.59 
		49.07,167.59 49.07,176.62 9.07,176.62 9.07,192.11 64.56,192.11 64.56,183.07 105.06,183.07 	"/>
</g>
</svg>
